<svg width="7" height="10" viewBox="0 0 7 16" fill="none" xmlns="http://www.w3.org/2000/svg">
    <path d="M4.92664 0C4.52882 0 4.14728 0.158035 3.86598 0.43934C3.58468 0.720644 3.42664 1.10218 3.42664 1.5C3.42664 1.89782 3.58468 2.27936 3.86598 2.56066C4.14728 2.84196 4.52882 3 4.92664 3C5.32446 3 5.706 2.84196 5.9873 2.56066C6.2686 2.27936 6.42664 1.89782 6.42664 1.5C6.42664 1.10218 6.2686 0.720644 5.9873 0.43934C5.706 0.158035 5.32446 0 4.92664 0ZM4.56664 4.77C3.37664 4.87 0.12664 7.46 0.12664 7.46C-0.07336 7.61 -0.0133595 7.6 0.14664 7.88C0.30664 8.15 0.28664 8.17 0.47664 8.04C0.67664 7.91 1.00664 7.7 1.55664 7.36C3.67664 6 1.89664 9.14 0.986641 14.43C0.626641 17.05 2.98664 15.7 3.59664 15.3C4.19664 14.91 5.80664 13.8 5.96664 13.69C6.18664 13.54 6.02664 13.42 5.85664 13.17C5.73664 13 5.61664 13.12 5.61664 13.12C4.96664 13.55 3.77664 14.45 3.61664 13.88C3.42664 13.31 4.64664 9.4 5.31664 6.71C5.42664 6.07 5.72664 4.67 4.56664 4.77Z" fill="#C39126"/>
    </svg>
    