<svg width="7" height="10" viewBox="0 0 24 24" fill="none" xmlns="http://www.w3.org/2000/svg">
    <path d="M12 21.3523C11.6583 21.3523 11.3289 21.2285 11.0722 21.0036C10.1026 20.1559 9.16789 19.3592 8.34317 18.6564L8.33895 18.6528C5.92105 16.5923 3.8331 14.8129 2.38035 13.06C0.75642 11.1005 0 9.24244 0 7.21271C0 5.24069 0.676217 3.42133 1.90392 2.08961C3.14629 0.742147 4.85099 2.36034e-05 6.70457 2.36034e-05C8.08995 2.36034e-05 9.35867 0.438023 10.4755 1.30174C11.039 1.73768 11.5499 2.27125 12 2.89361C12.4502 2.27125 12.9609 1.73768 13.5247 1.30174C14.6415 0.438023 15.9102 2.36034e-05 17.2956 2.36034e-05C19.149 2.36034e-05 20.8538 0.742147 22.0962 2.08961C23.3239 3.42133 24 5.24069 24 7.21271C24 9.2424 23.2437 11.1004 21.6198 13.0598C20.167 14.8129 18.0792 16.5921 15.6617 18.6524C14.8355 19.3563 13.8993 20.1542 12.9276 21.004C12.6708 21.2286 12.3412 21.3524 12 21.3523ZM6.70457 1.4059C5.24835 1.4059 3.91059 1.9871 2.93737 3.04249C1.94972 4.11386 1.40568 5.59483 1.40568 7.21271C1.40568 8.9198 2.04014 10.4465 3.4627 12.163C4.83763 13.8221 6.88274 15.5649 9.25067 17.5829L9.25503 17.5866C10.0828 18.292 11.0213 19.0918 11.998 19.9459C12.9805 19.0902 13.9204 18.2891 14.7498 17.5825C17.1176 15.5645 19.1625 13.8221 20.5374 12.163C21.9598 10.4465 22.5943 8.9198 22.5943 7.21271C22.5943 5.59478 22.0502 4.11381 21.0626 3.04249C20.0896 1.9871 18.7516 1.4059 17.2956 1.4059C16.2288 1.4059 15.2493 1.74504 14.3846 2.41371C13.6139 3.00991 13.077 3.76356 12.7622 4.29091C12.6004 4.56208 12.3155 4.72394 12 4.72394C11.6845 4.72394 11.3996 4.56208 11.2377 4.29091C10.9232 3.76356 10.3863 3.00991 9.61536 2.41371C8.75061 1.74504 7.77116 1.4059 6.70457 1.4059Z" fill="#C39126"/>
    </svg>
    