<svg width="15" height="13" viewBox="0 0 15 13" fill="none" xmlns="http://www.w3.org/2000/svg">
<path d="M8.54686 2.00217L3.39029 6.5525L2.86751 7.01277L2.77245 7.09645L0.966465 10.402C0.845297 10.6142 0.803186 10.8546 0.846117 11.0891C0.889049 11.3236 1.01484 11.5403 1.20561 11.7082C1.39638 11.8762 1.64242 11.9869 1.90877 12.0247C2.17513 12.0625 2.44823 12.0254 2.68928 11.9188L6.42007 10.3183L7.04979 9.76388L7.5607 9.31408L12.7173 4.75329L13.2519 4.29303L13.549 4.03152C14.0336 3.60399 14.3058 3.02463 14.3058 2.42059C14.3058 1.81656 14.0336 1.2372 13.549 0.809673C13.0657 0.387248 12.4121 0.150335 11.7311 0.15066C11.0465 0.149846 10.389 0.386626 9.90135 0.809673L9.06965 1.53145L8.53498 1.99171L8.54686 2.00217ZM2.54671 10.5066L3.94872 7.96467L5.43391 9.2827L2.54671 10.5066ZM4.923 6.99185L9.55679 2.90178L11.1014 4.27211L6.51513 8.41448L4.923 6.99185ZM11.6717 1.4373C11.8153 1.43688 11.9575 1.46163 12.0901 1.51012C12.2227 1.55862 12.343 1.62987 12.444 1.71974C12.6493 1.90195 12.7645 2.14823 12.7645 2.4049C12.7645 2.66158 12.6493 2.90785 12.444 3.09007L12.147 3.34112L10.6024 1.98125L10.8994 1.71974C11.0066 1.62677 11.1354 1.55528 11.2769 1.51015C11.4184 1.46502 11.5692 1.4473 11.7192 1.45823L11.6717 1.4373Z" fill="#37474F"/>
</svg>
