<svg width="7" height="10" viewBox="0 0 20 20" fill="none" xmlns="http://www.w3.org/2000/svg">
    <path d="M10 0C10.457 0 10.8281 0.371094 10.8281 0.828125V10.3594C10.8281 10.8164 10.457 11.1875 10 11.1875C9.54297 11.1875 9.17188 10.8164 9.17188 10.3594V0.828125C9.17188 0.371094 9.54297 0 10 0Z" fill="#C39126"/>
    <path d="M18.996 5.9219C18.5038 4.87502 17.832 3.91799 17.0116 3.10158C16.6991 2.78908 16.1913 2.78518 15.8749 3.09377L15.8554 3.1094C15.5351 3.4219 15.5312 3.93361 15.8437 4.25393L15.8554 4.26565C16.5116 4.91799 17.0546 5.67971 17.457 6.51174C17.9999 7.62111 18.2773 8.84377 18.2695 10.0781C18.2695 12.375 17.4648 14.3242 15.8593 15.9336C14.2538 17.5391 12.3007 18.3438 10.0038 18.3438C7.70695 18.3438 5.75774 17.5391 4.14836 15.9336C2.53899 14.3281 1.7382 12.375 1.7382 10.0781C1.7382 8.80861 2.00774 7.62893 2.5507 6.53908C2.97258 5.69143 3.53508 4.91799 4.21086 4.25783C4.53117 3.94533 4.53508 3.43361 4.22258 3.11721L4.21477 3.1094C3.89836 2.79299 3.38664 2.79299 3.07024 3.1094C2.23039 3.93752 1.53899 4.90236 1.01945 5.96096C0.394455 7.2383 0.0819546 8.6094 0.0819546 10.0781C0.0741421 11.3985 0.339767 12.7071 0.867111 13.9219C1.88493 16.2991 3.77897 18.1931 6.15617 19.211C7.36711 19.7383 8.6757 20.0039 9.99992 19.9961C11.3788 19.9961 12.6679 19.7344 13.871 19.211C15.0468 18.707 16.1093 17.9805 17.0116 17.0781C17.9101 16.168 18.6288 15.0977 19.1327 13.9219C19.6601 12.711 19.9257 11.4024 19.9179 10.0781C19.9257 8.64455 19.6093 7.22268 18.996 5.9219Z" fill="#C39126"/>
    </svg>
    