<svg width="14" height="24" viewBox="0 0 14 24" fill="none" xmlns="http://www.w3.org/2000/svg">
    <path d="M11.0936 23.54C11.3912 23.8377 11.77 24 12.2165 24C13.1094 24 13.8264 23.2965 13.8264 22.4036C13.8264 21.9572 13.637 21.5513 13.3258 21.2401L3.85569 11.9865L13.3258 2.75986C13.637 2.4487 13.8264 2.02931 13.8264 1.59639C13.8264 0.703495 13.1094 0 12.2165 0C11.77 0 11.3912 0.162345 11.0936 0.459977L0.568207 10.7418C0.189402 11.0936 0.0135287 11.5265 0 12C0 12.4735 0.189402 12.8794 0.568207 13.2446L11.0936 23.54Z" fill="#C39126"/>
    </svg>
    