<svg width="7" height="10" viewBox="0 0 22 17" fill="none" xmlns="http://www.w3.org/2000/svg">
    <path d="M18.24 5.97588C18.8467 5.38167 19.2 4.56996 19.2 3.7C19.2 1.93558 17.7646 0.5 16 0.5C15.417 0.5 14.8434 0.66025 14.3406 0.963542C14.2599 1.0123 14.2018 1.0911 14.1792 1.18264C14.1565 1.27418 14.1711 1.37097 14.2198 1.45175C14.3212 1.62 14.5399 1.67362 14.708 1.57258C15.1 1.33612 15.5465 1.21113 16 1.21113C17.3722 1.21113 18.4889 2.32763 18.4889 3.7C18.4889 4.54513 18.0656 5.32413 17.3552 5.78488C16.7587 6.17621 16.0024 6.28904 15.3118 6.09233C15.125 6.0385 14.9264 6.14754 14.8722 6.33642C14.8464 6.42713 14.8576 6.52439 14.9034 6.60682C14.9493 6.68925 15.026 6.7501 15.1167 6.776C15.4039 6.85823 15.7012 6.89996 16 6.89996C16.5591 6.89996 17.0995 6.74746 17.5793 6.47204C19.4045 7.13342 20.6222 8.85671 20.6222 10.8111V12.5889H17.38C17.1282 10.214 15.6341 8.13588 13.4548 7.14908C14.1483 6.443 14.5778 5.47667 14.5778 4.41113C14.5778 2.2545 12.8233 0.5 10.6667 0.5C8.51008 0.5 6.75554 2.2545 6.75554 4.41113C6.75554 5.477 7.18521 6.44363 7.87908 7.14979C7.14567 7.483 6.46546 7.94917 5.88854 8.52279C4.78258 9.63192 4.10958 11.0555 3.94983 12.589H0.711125V10.8112C0.711125 9.57992 1.19204 8.419 2.06392 7.54346C2.54388 7.06654 3.12821 6.70271 3.75738 6.47404C4.23725 6.74833 4.77604 6.9 5.33333 6.9C5.63196 6.9 5.92917 6.85833 6.21667 6.77604C6.30735 6.75013 6.38404 6.68927 6.42988 6.60684C6.47571 6.52442 6.48695 6.42717 6.46113 6.33646C6.40696 6.14758 6.20833 6.03871 6.02154 6.09237C5.33125 6.28942 4.57538 6.17675 3.97642 5.78404C3.26775 5.32413 2.84446 4.54517 2.84446 3.7C2.84446 2.32763 3.96113 1.21113 5.33333 1.21113C5.78679 1.21113 6.23333 1.33612 6.62533 1.57258C6.70614 1.62111 6.80289 1.63564 6.89439 1.613C6.9859 1.59035 7.0647 1.53237 7.11354 1.45175C7.21492 1.28354 7.16075 1.06512 6.99271 0.963542C6.48992 0.66025 5.91633 0.5 5.33333 0.5C3.56875 0.5 2.13333 1.93558 2.13333 3.7C2.13333 4.56929 2.48604 5.38037 3.091 5.97404C2.52323 6.23833 2.0056 6.5991 1.56113 7.04029C0.5545 8.05137 2.1991e-08 9.39046 2.1991e-08 10.8111V12.9445C-1.64035e-05 12.9912 0.00916875 13.0374 0.0270306 13.0805C0.0448924 13.1237 0.0710808 13.1629 0.104099 13.1959C0.137118 13.2289 0.176319 13.2551 0.219462 13.273C0.262606 13.2908 0.308847 13.3 0.355542 13.3H3.91108V16.1445C3.91107 16.1912 3.92025 16.2374 3.93811 16.2805C3.95598 16.3237 3.98216 16.3629 4.01518 16.3959C4.0482 16.4289 4.0874 16.4551 4.13055 16.473C4.17369 16.4908 4.21993 16.5 4.26663 16.5H17.0666C17.1133 16.5 17.1596 16.4908 17.2027 16.473C17.2458 16.4551 17.2851 16.4289 17.3181 16.3959C17.3511 16.3629 17.3773 16.3237 17.3951 16.2805C17.413 16.2374 17.4222 16.1912 17.4222 16.1445V13.3H20.9777C21.0244 13.3 21.0706 13.2908 21.1138 13.273C21.1569 13.2551 21.1961 13.2289 21.2292 13.1959C21.2622 13.1629 21.2884 13.1237 21.3062 13.0805C21.3241 13.0374 21.3333 12.9912 21.3333 12.9445V10.8111C21.3333 8.70883 20.1116 6.83867 18.24 5.97588ZM7.46667 4.41113C7.46667 2.64671 8.90208 1.21113 10.6667 1.21113C12.4313 1.21113 13.8667 2.64671 13.8667 4.41113C13.8667 6.17554 12.4313 7.61113 10.6667 7.61113C8.90208 7.61113 7.46667 6.1755 7.46667 4.41113ZM16.7111 15.7889H4.62221V13.3C4.62221 11.6878 5.25067 10.1696 6.39096 9.02588C6.99167 8.42838 7.71992 7.96492 8.50071 7.66508C9.12133 8.07954 9.866 8.32221 10.6667 8.32221C11.4687 8.32221 12.2146 8.07883 12.8358 7.66313C15.1599 8.55608 16.7111 10.7967 16.7111 13.3V15.7889Z" fill="#C39126"/>
    </svg>
    