<svg width="25" height="22" viewBox="0 0 25 22" fill="none" xmlns="http://www.w3.org/2000/svg">
    <path d="M13.3938 21.9512V15.6794H16.9655L12.5009 9.40767L8.03629 15.6794H11.608V21.9512H7.14337V21.899C6.99336 21.9094 6.85049 21.9512 6.69691 21.9512C4.92078 21.9512 3.21739 21.1253 1.96148 19.655C0.705565 18.1848 0 16.1907 0 14.1115C0 10.0892 2.5984 6.81115 5.93257 6.36167C6.2249 4.57274 7.04059 2.95897 8.23936 1.79792C9.43813 0.636873 10.945 0.00111641 12.5009 0C14.057 0.00100696 15.5641 0.636679 16.7632 1.79771C17.9623 2.95873 18.7783 4.57256 19.071 6.36167C22.4052 6.81115 25 10.0892 25 14.1115C25 16.1907 24.2944 18.1848 23.0385 19.655C21.7826 21.1253 20.0792 21.9512 18.3031 21.9512C18.1531 21.9512 18.0084 21.9094 17.8566 21.899V21.9512H13.3938Z" fill="#37474F"/>
    </svg>
    