<svg width="7" height="10" viewBox="0 0 24 24" fill="none" xmlns="http://www.w3.org/2000/svg">
    <path d="M7.29359 0.000461575C6.33969 -0.0103307 5.39313 0.16823 4.50872 0.525803C3.62431 0.883376 2.81963 1.41286 2.14127 2.08358C1.46292 2.7543 0.924369 3.55295 0.556813 4.43325C0.189258 5.31356 0 6.25804 0 7.212C0 8.16596 0.189258 9.11044 0.556813 9.99075C0.924369 10.8711 1.46292 11.6697 2.14127 12.3404C2.81963 13.0111 3.62431 13.5406 4.50872 13.8982C5.39313 14.2558 6.33969 14.4343 7.29359 14.4235C9.20633 14.4235 11.0407 13.6637 12.3932 12.3112C13.7458 10.9587 14.5056 9.12428 14.5056 7.21154C14.5056 5.2988 13.7458 3.4644 12.3932 2.11188C11.0407 0.759372 9.20633 0.000461616 7.29359 0.000461575ZM4.9859 2.50846C5.30059 2.50785 5.61231 2.5694 5.90315 2.68958C6.194 2.80975 6.45824 2.98619 6.68072 3.20875C6.9032 3.43132 7.07953 3.69563 7.1996 3.98652C7.31966 4.27741 7.38109 4.58915 7.38036 4.90385C7.38121 5.21853 7.31986 5.53028 7.19983 5.82118C7.0798 6.11207 6.90346 6.37637 6.68094 6.59889C6.45842 6.8214 6.19412 6.99775 5.90323 7.11778C5.61233 7.23781 5.30058 7.29916 4.9859 7.29831C4.67121 7.29916 4.35946 7.23781 4.06857 7.11778C3.77768 6.99775 3.51337 6.8214 3.29086 6.59889C3.06834 6.37637 2.892 6.11207 2.77197 5.82118C2.65194 5.53028 2.59058 5.21853 2.59144 4.90385C2.59083 4.58923 2.65235 4.27759 2.77247 3.98681C2.89258 3.69602 3.06893 3.43182 3.2914 3.20935C3.51387 2.98688 3.77807 2.81053 4.06886 2.69041C4.35964 2.5703 4.67128 2.50785 4.9859 2.50846ZM15.2265 10.5568C14.9732 11.1488 14.6536 11.7102 14.2739 12.2303L21.4859 19.4414C21.6375 19.5951 21.7226 19.8024 21.7226 20.0183C21.7226 20.2342 21.6375 20.4415 21.4859 20.5952C21.3319 20.7464 21.1248 20.8311 20.909 20.8311C20.6932 20.8311 20.486 20.7464 20.3321 20.5952L13.2068 13.4414C12.307 14.2938 11.2349 14.9435 10.0628 15.3466V16.6158C10.0628 17.022 10.4053 17.3654 10.8133 17.3654H12.8321V19.3851C12.8321 19.7912 13.1745 20.1346 13.5825 20.1346H15.6013V22.1543C15.6013 22.5605 15.9447 22.9038 16.3517 22.9038H18.3991L18.9188 23.4235C19.2345 23.7383 22.397 23.8962 23.1881 23.106C23.9791 22.314 23.8194 19.1515 23.5047 18.8368L15.2265 10.5568Z" fill="#C39126"/>
    </svg>
    