<svg width="7" height="10" viewBox="0 0 20 20" fill="none" xmlns="http://www.w3.org/2000/svg">
    <g clip-path="url(#clip0_676_2947)">
    <path d="M19.1217 11.5897L18.2897 10.9047C17.7198 10.4356 17.7208 9.56352 18.2897 9.09528L19.1217 8.41036C19.4081 8.17585 19.6016 7.84705 19.6676 7.48284C19.7336 7.11864 19.6677 6.74284 19.4818 6.42278L17.8389 3.57723C17.6547 3.25622 17.3622 3.0113 17.0138 2.88634C16.6654 2.76138 16.2839 2.76455 15.9376 2.89528L14.9284 3.27337C14.2372 3.53227 13.4825 3.09559 13.3613 2.36864L13.1842 1.30559C13.1243 0.94034 12.9363 0.608349 12.6539 0.369109C12.3715 0.12987 12.0131 -0.000980849 11.643 5.62464e-06H8.35724C7.9871 -0.000988639 7.62871 0.129863 7.34628 0.369111C7.06386 0.608359 6.87586 0.940365 6.81599 1.30563L6.6388 2.36864C6.51744 3.09688 5.76173 3.53184 5.07177 3.2734L4.06259 2.89528C3.71632 2.76455 3.33482 2.76138 2.98642 2.88634C2.63803 3.0113 2.34551 3.25622 2.16126 3.57723L0.518411 6.42274C0.332488 6.74279 0.266615 7.1186 0.332597 7.48281C0.398578 7.84702 0.592102 8.17583 0.878489 8.41032L1.71048 9.09524C2.28048 9.56446 2.27935 10.4364 1.71048 10.9047L0.87845 11.5896C0.59207 11.8241 0.398551 12.1529 0.33257 12.5171C0.266588 12.8813 0.332457 13.2571 0.518372 13.5772L2.16126 16.4227C2.54478 17.0869 3.34431 17.3737 4.06259 17.1047L5.07173 16.7266C5.7631 16.4676 6.51763 16.9046 6.63876 17.6313L6.81595 18.6943C6.87581 19.0596 7.0638 19.3916 7.34623 19.6309C7.62865 19.8701 7.98705 20.001 8.3572 20H11.6429C12.0131 20.001 12.3715 19.8701 12.6539 19.6309C12.9363 19.3916 13.1243 19.0596 13.1842 18.6944L13.3613 17.6314C13.4826 16.9034 14.2383 16.4681 14.9284 16.7267L15.9376 17.1047C16.2839 17.2355 16.6654 17.2387 17.0138 17.1137C17.3622 16.9888 17.6547 16.7438 17.8389 16.4228L19.4818 13.5772C19.6677 13.2571 19.7336 12.8813 19.6676 12.5171C19.6016 12.153 19.4081 11.8242 19.1217 11.5897ZM16.4858 15.6415L15.4766 15.2634C13.8633 14.6591 12.1027 15.6787 11.8201 17.3745L11.643 18.4375H8.35724L8.18005 17.3745C7.89689 15.6754 6.13372 14.6603 4.52361 15.2634L3.51443 15.6415L1.87158 12.796L2.70357 12.1111C4.03361 11.0161 4.03083 8.98161 2.70357 7.88895L1.87158 7.20403L3.51447 4.35848L4.52361 4.73657C6.13689 5.34087 7.89743 4.32133 8.18005 2.62551L8.3572 1.56251H11.6429L11.8201 2.62551C12.1033 4.32481 13.8665 5.33962 15.4765 4.73657L16.4857 4.35848L18.129 7.20364L18.1285 7.20399L17.2966 7.88891C15.9666 8.98376 15.9692 11.0183 17.2965 12.111L18.1286 12.7959L16.4858 15.6415ZM10.0001 6.14583C7.8749 6.14583 6.14591 7.87481 6.14591 10C6.14591 12.1252 7.8749 13.8542 10.0001 13.8542C12.1253 13.8542 13.8543 12.1252 13.8543 10C13.8543 7.87481 12.1253 6.14583 10.0001 6.14583ZM10.0001 12.2917C8.73646 12.2917 7.70841 11.2636 7.70841 10C7.70841 8.73637 8.73646 7.70833 10.0001 7.70833C11.2637 7.70833 12.2918 8.73637 12.2918 10C12.2918 11.2636 11.2637 12.2917 10.0001 12.2917Z" fill="#C39126"/>
    </g>
    <defs>
    <clipPath id="clip0_676_2947">
    <rect width="20" height="20" fill="white"/>
    </clipPath>
    </defs>
    </svg>
    